<?xml version="1.0" encoding="utf-8"?>
<!-- Generator: Adobe Illustrator 22.1.0, SVG Export Plug-In . SVG Version: 6.00 Build 0)  -->
<svg version="1.1" id="Layer_1" xmlns="http://www.w3.org/2000/svg" xmlns:xlink="http://www.w3.org/1999/xlink" x="0px" y="0px"
	 viewBox="0 0 608 293" style="enable-background:new 0 0 608 293;" xml:space="preserve">
<style type="text/css">
	.st0{fill:#FFFFFF;}
	.st1{fill:#E52E12;}
</style>
<g>
	<path class="st0" d="M196.5,51.1c1.9,0.1,3.8-0.1,5.7-0.1c1,0,2-0.2,3-0.3c0,0.4-0.1,0.7-0.1,1s0.1,0.7,0.1,1h-11.4V30.3
		c0.4,0,0.9,0.1,1.4,0.1c0.4,0,0.9-0.1,1.4-0.1v20.8H196.5z"/>
	<path class="st0" d="M220.5,51.1c-1.5,1.1-3.5,1.9-5.4,1.9c-4.3,0-7.4-3-7.4-8.1c0-4.6,2.5-8.1,7.2-8.1c3.5,0,6.7,2.6,6.4,8
		c-2.1-0.1-4.3-0.1-6.4-0.1h-4.4c-0.3,3.7,1.6,6.8,5.4,6.8c2.1,0,3.8-1.4,4.6-2.3L220.5,51.1z M218.8,43.6c-0.1-2.9-0.8-5.7-3.9-5.7
		c-3,0-4.2,3-4.4,5.7H218.8z"/>
	<path class="st0" d="M224.6,49.6c0.8,1.3,2.1,2.4,3.6,2.4s3.1-1.2,3.1-3c0-4.4-7.4-1.5-7.4-7.3c0-3.2,2.3-4.9,5.1-4.9
		c1.6,0,3,0.5,3.5,0.9c-0.3,0.8-0.6,1.5-0.8,2.3h-0.3c-0.4-1.1-1.5-2.2-2.7-2.2c-1.6,0-2.9,1-2.9,2.7c0,4.2,7.4,2,7.4,7.2
		c0,3.5-3,5.2-5.8,5.2c-1.3,0-2.8-0.4-3.9-1.1c0.3-0.8,0.5-1.6,0.7-2.4h0.4L224.6,49.6L224.6,49.6z"/>
	<path class="st0" d="M256.4,37c0.3,0,0.7,0.1,1,0.1s0.6-0.1,1-0.1c-1.7,3.7-4.8,10.9-6.4,15.7c-0.3,0-0.7-0.1-0.9-0.1
		c-0.3,0-0.7,0.1-1,0.1c-1.1-3.1-4.2-11.1-6.2-15.7c0.4,0,0.9,0.1,1.4,0.1c0.4,0,0.8-0.1,1.4-0.1c0.9,3.1,2.7,8,4.7,12.6
		c0.2-0.3,0.5-0.6,0.6-0.9l1.9-4.6L256.4,37z"/>
	<path class="st0" d="M263.4,33.1c-0.9,0-1.6-0.8-1.6-1.7s0.7-1.7,1.6-1.7c0.8,0,1.6,0.8,1.6,1.7S264.2,33.1,263.4,33.1z
		 M264.6,52.7c-0.5,0-0.8-0.1-1.3-0.1c-0.4,0-0.8,0.1-1.3,0.1V37c0.4,0,0.8,0.1,1.3,0.1c0.4,0,0.8-0.1,1.3-0.1V52.7z"/>
	<path class="st0" d="M279.5,50c0,1.3-0.1,1.9,1.8,1.5v0.7c-0.2,0.1-0.6,0.3-0.9,0.3c-1.6,0.3-3,0-3.2-1.9l-0.3,0.3
		c-1.3,1.4-2.8,2.1-4.6,2.1c-2.2,0-4.2-1.6-4.2-4c0-3.7,2.9-4.2,5.8-4.7c2.5-0.4,3.3-0.6,3.3-2.2c0-2.4-1.3-3.8-3.7-3.8
		c-2.3,0-3.5,1.5-3.7,2.3h-0.3v-1.8c1.5-1.1,3.2-1.8,5.1-1.8c3.3,0,5.1,1.8,5.1,5.5V50L279.5,50L279.5,50z M276.9,44.6l-1.1,0.2
		c-2.1,0.4-5.3,0.8-5.3,3.7c0,2.1,1.2,3.1,3.1,3.1c0.8,0,1.9-0.6,2.5-1.2c0.2-0.2,0.8-0.8,0.8-1V44.6z"/>
	<path class="st0" d="M284.6,37c0.4,0,0.8,0.1,1.3,0.1c0.4,0,0.8-0.1,1.3-0.1v3c1.1-2,2.8-3.2,5.1-3.2c3.6,0,5.1,2.1,5.1,6.4v9.5
		c-0.5,0-0.8-0.1-1.3-0.1c-0.4,0-0.8,0.1-1.3,0.1V44c0-3.1-0.5-5.5-3.5-5.5c-3.3,0-4.1,2.5-4.1,6.6v7.6c-0.5,0-0.8-0.1-1.3-0.1
		c-0.4,0-0.8,0.1-1.3,0.1L284.6,37L284.6,37z"/>
	<path class="st0" d="M315,52.7c-0.5,0-0.8-0.1-1.3-0.1c-0.4,0-0.8,0.1-1.3,0.1v-3.2c-1.3,2.3-3,3.4-5.4,3.4c-3.5,0-6.3-2.6-6.3-8
		c0-4.5,2.6-8.2,6.8-8.2c2.2,0,3.8,1.2,4.9,3.2v-12c0.4,0,0.8,0.1,1.3,0.1c0.4,0,0.8-0.1,1.3-0.1V52.7z M308.2,38.2
		c-4,0-4.7,3.9-4.7,7.3c0,2.8,1,6.3,4.3,6.3c3.6,0,4.6-4.3,4.6-7.4C312.5,41.7,311.4,38.2,308.2,38.2z"/>
	<path class="st0" d="M331,51.1c-1.5,1.1-3.5,1.9-5.4,1.9c-4.3,0-7.4-3-7.4-8.1c0-4.6,2.5-8.1,7.2-8.1c3.5,0,6.7,2.6,6.4,8
		c-2.1-0.1-4.3-0.1-6.4-0.1H321c-0.3,3.7,1.6,6.8,5.4,6.8c2.1,0,3.8-1.4,4.6-2.3V51.1z M329.3,43.6c-0.1-2.9-0.8-5.7-3.9-5.7
		c-3,0-4.2,3-4.4,5.7H329.3z"/>
	<path class="st0" d="M335.1,49.6c0.8,1.3,2.1,2.4,3.6,2.4s3.1-1.2,3.1-3c0-4.4-7.4-1.5-7.4-7.3c0-3.2,2.3-4.9,5.1-4.9
		c1.6,0,3,0.5,3.6,0.9c-0.3,0.8-0.6,1.5-0.8,2.3H342c-0.4-1.1-1.5-2.2-2.7-2.2c-1.6,0-2.9,1-2.9,2.7c0,4.2,7.4,2,7.4,7.2
		c0,3.5-3,5.2-5.8,5.2c-1.3,0-2.8-0.4-3.9-1.1c0.3-0.8,0.5-1.6,0.7-2.4h0.3V49.6z"/>
</g>
<g>
	<path class="st0" d="M173.8,148l-4.7,2.5c-10.8,5.6-23.5,7.7-35.5,7.7c-38.4,0-67.4-23.7-67.4-60.4c0-46.8,32.3-68.1,71.3-68.1
		c11.8,0,26.2,3,36.6,8.8c-1.6,6.1-2.7,12.2-4.1,18.5h-2.5c-6.6-9.7-18.1-16.5-29.8-16.5c-29.8,0-41.8,28.5-41.8,54.8
		c0,30.6,15.4,51.6,47.7,51.6c11.1,0,19.7,7.7,27.7,0L173.8,148z"/>
</g>
<g>
	<path class="st0" d="M143.7,146.9H190c18.1,0,35.7,6.1,35.7,27.1c0,16.8-14.2,26.5-29.4,28.7v1.6c13.3,1.3,32.3,7.3,32.3,29.6
		c0,24.7-22.2,35.1-43.4,35.1h-41.4V146.9H143.7z M170.6,199.6c7.7,0,14.5,0.7,20.6-4.5c5.6-4.7,7.7-11.7,7.7-18.6
		c0-12.9-7.3-19.9-19.2-19.9c-2.9,0-5.6,0.2-9.1,0.7V199.6z M170.6,258.6h9c9.9,0,21.1-8.6,21.1-23.5c0-19.7-10.9-26.5-30.1-25.1
		V258.6z"/>
</g>
<g>
	<path class="st0" d="M244,169.6h11.7c2.3,0,4.4-0.3,6.7-0.4c-0.1,0.6-0.2,1.3-0.2,2c0,0.6,0.2,1.3,0.2,2.1
		c-2.3-0.1-4.4-0.4-6.7-0.4H244v22c4.6,0.2,9.1-0.2,13.6-0.3c2.3-0.1,4.6-0.3,6.9-0.7c-0.1,0.8-0.2,1.5-0.2,2.3s0.2,1.5,0.2,2.3
		h-27.1v-51.2h26.7c-0.1,0.8-0.2,1.5-0.2,2.3s0.2,1.5,0.2,2.3c-2.3-0.5-4.5-0.7-6.8-0.8l-7.5-0.2H244V169.6z"/>
	<path class="st0" d="M275.1,147.2H291c11.6,0,16.7,3.8,16.7,11.4c0,8.7-7.8,12.9-15.4,14.3l15.5,19.6l3.6,4.2l1.4,1.9
		c-1.6-0.1-2.9-0.2-4.4-0.2c-1.4,0-2.9,0.2-4.3,0.2c-1.7-2.3-3.2-4.4-4.7-6.5l-8.9-11.5l-6-7.1h-2.9v25.1c-1.2-0.1-2.3-0.2-3.3-0.2
		c-1.1,0-2.3,0.2-3.3,0.2L275.1,147.2L275.1,147.2z M281.7,170.7c1.1,0.1,5.9,0.4,9.7-0.4c5.5-1.1,9.6-4.9,9.6-10.8
		c0-5.2-2.6-8.6-8.3-9.5c-2.8-0.5-7.9-0.2-11.1-0.1L281.7,170.7L281.7,170.7z"/>
	<path class="st0" d="M365.4,198.7h-2.3c-0.8-1.1-2.3-2.9-3.9-4.6l-32.5-35.9H326v40.5c-0.8-0.1-1.4-0.2-2.1-0.2
		c-0.8,0-1.4,0.2-2.1,0.2v-51.4h2.9l35.7,38.7h0.8v-38.7c0.7,0.1,1.4,0.2,2.1,0.2s1.4-0.2,2.1-0.2V198.7z"/>
	<path class="st0" d="M420.3,198.7c-1.4-0.1-2.6-0.2-3.9-0.2c-1.4,0-2.7,0.2-4,0.2c-2.2-6.2-4.9-13.5-7.9-20.3h-19.1
		c-2.6,6.6-5.3,13.2-7.4,20.3c-1.1-0.1-1.9-0.2-2.8-0.2c-1,0-1.8,0.2-2.6,0.2l23.5-52.6h1.7L420.3,198.7z M395.1,156l-8.2,19.2h16.5
		L395.1,156z"/>
	<path class="st0" d="M428.3,147.2h15.9c11.6,0,16.7,3.8,16.7,11.4c0,8.7-7.8,12.9-15.4,14.3l15.5,19.6l3.6,4.2l1.4,1.9
		c-1.6-0.1-2.9-0.2-4.4-0.2c-1.4,0-2.9,0.2-4.3,0.2c-1.7-2.3-3.2-4.4-4.7-6.5l-8.9-11.5l-6-7.1h-2.9v25.1c-1.2-0.1-2.3-0.2-3.3-0.2
		c-1.1,0-2.3,0.2-3.3,0.2v-51.4H428.3z M434.9,170.7c1.1,0.1,5.9,0.4,9.7-0.4c5.5-1.1,9.6-4.9,9.6-10.8c0-5.2-2.6-8.6-8.3-9.5
		c-2.8-0.5-7.9-0.2-11.1-0.1L434.9,170.7L434.9,170.7z"/>
	<path class="st0" d="M475,147.2h17c7.8,0,15.4-0.8,21.7,4.5c5.6,4.7,8,11.7,8,18.8c0,10.5-3.8,17.2-9.5,22.2
		c-6.4,5.6-14.7,5.7-22.7,5.7H475V147.2z M481.6,195.1c6.6,0.4,15.9,1.3,22-1.8c8.1-4.1,10.8-12.4,10.8-21.6
		c0-15.9-6.5-21.7-23.4-21.7c-3.1,0-6.2,0.2-9.5,0.3v44.8L481.6,195.1L481.6,195.1z"/>
</g>
<g>
	<path class="st0" d="M161.7,96.6h11.7c2.3,0,4.4-0.3,6.7-0.4c-0.1,0.6-0.2,1.3-0.2,2c0,0.6,0.2,1.3,0.2,2.1
		c-2.3-0.1-4.4-0.4-6.7-0.4h-11.7v22c4.6,0.2,9.1-0.2,13.6-0.3c2.3-0.1,4.6-0.3,6.9-0.7c-0.1,0.8-0.2,1.5-0.2,2.3s0.2,1.5,0.2,2.3
		h-27.1V74.3h26.7c-0.1,0.8-0.2,1.5-0.2,2.3s0.2,1.5,0.2,2.3c-2.3-0.5-4.5-0.7-6.8-0.8l-7.5-0.2h-5.8L161.7,96.6L161.7,96.6z"/>
	<path class="st0" d="M237.1,125.7h-2.3c-0.8-1.1-2.3-2.9-3.9-4.6l-32.5-35.9h-0.8v40.5c-0.8-0.1-1.4-0.2-2.1-0.2
		c-0.8,0-1.4,0.2-2.1,0.2V74.3h2.9L232,113h0.8V74.3c0.7,0.1,1.4,0.2,2.1,0.2s1.4-0.2,2.1-0.2L237.1,125.7L237.1,125.7z"/>
	<path class="st0" d="M269,125.8c-1.2-0.1-2.3-0.2-3.3-0.2c-1.1,0-2.3,0.2-3.3,0.2v-48c-7.6,0-12.2,0.5-16.5,0.9
		c0.1-0.8,0.2-1.5,0.2-2.3s-0.2-1.4-0.2-2.3h38.8c-0.1,0.8-0.2,1.5-0.2,2.3s0.2,1.5,0.2,2.3c-3.8-0.5-9-0.9-15.7-0.9V125.8z"/>
	<path class="st0" d="M293,74.2h16c11.6,0,16.7,3.8,16.7,11.4c0,8.7-7.8,12.9-15.4,14.3l15.5,19.6l3.6,4.2l1.4,1.9
		c-1.6-0.1-2.9-0.2-4.4-0.2s-2.9,0.2-4.3,0.2c-1.7-2.3-3.2-4.4-4.7-6.5l-8.9-11.5l-6-7.1h-2.9v25.1c-1.2-0.1-2.3-0.2-3.3-0.2
		c-1.1,0-2.3,0.2-3.3,0.2L293,74.2L293,74.2z M299.6,97.7c1.1,0.1,5.9,0.4,9.7-0.4c5.5-1.1,9.6-4.9,9.6-10.8c0-5.2-2.6-8.6-8.3-9.5
		c-2.8-0.5-7.9-0.2-11.1-0.1L299.6,97.7L299.6,97.7z"/>
	<path class="st0" d="M381.1,125.7c-1.4-0.1-2.6-0.2-3.9-0.2c-1.4,0-2.7,0.2-4,0.2c-2.2-6.2-4.9-13.5-7.9-20.3h-19.1
		c-2.6,6.6-5.3,13.2-7.4,20.3c-1.1-0.1-1.9-0.2-2.8-0.2c-1,0-1.8,0.2-2.6,0.2l23.5-52.6h1.7L381.1,125.7z M355.9,83l-8.2,19.2h16.5
		L355.9,83z"/>
	<path class="st0" d="M395.6,121.9c4.6,0.2,9.1-0.2,13.6-0.3c2.4-0.1,4.7-0.4,7.1-0.7c-0.1,0.8-0.2,1.5-0.2,2.3s0.2,1.5,0.2,2.3H389
		V74.3c1.1,0.1,2.2,0.2,3.3,0.2s2.1-0.2,3.3-0.2V121.9z"/>
</g>
<g>
	<path class="st0" d="M525.2,186.3c0.2,0,0.5,0.1,0.8,0.1c0.2,0,0.5,0,0.8-0.1v12.1c-0.3,0-0.5-0.1-0.8-0.1s-0.5,0-0.8,0.1V186.3z"
		/>
	<path class="st0" d="M540.4,198.4h-0.5c-0.2-0.2-0.5-0.7-0.9-1.1l-7.6-8.4h-0.2v9.5c-0.2,0-0.3-0.1-0.5-0.1s-0.3,0-0.5,0.1v-12.1
		h0.7l8.4,9.1h0.2v-9.1c0.2,0,0.3,0.1,0.5,0.1s0.3,0,0.5-0.1v12.1H540.4z"/>
	<path class="st0" d="M553,197.6c-1.1,0.7-2.6,1-3.9,1c-3.9,0-6.2-2.5-6.2-6.3c0-4,2.9-6.2,6.7-6.2c1.3,0,2.6,0.3,3.8,0.8
		c-0.2,0.4-0.3,0.9-0.4,1.4h-0.1c-0.2-0.3-1.6-1.5-3.4-1.5c-3.3,0-4.9,2.6-4.9,5.6c0,3.4,1.9,5.6,4.7,5.6c1.9,0,3.4-1.1,3.7-1.4
		L553,197.6z"/>
	<path class="st0" d="M556.4,196.4c0.6,0,1,0.5,1,1.1s-0.5,1.1-1,1.1c-0.6,0-1.1-0.5-1.1-1.1S555.9,196.4,556.4,196.4z"/>
</g>
<path class="st1" d="M57,100.2v7.2c-19.4,11.5-32.8,27.4-32.4,40.7c1.1,33.5,55.5,54,105.5,68.4v11.2
	c-63.4-16.2-113.1-41.8-117-75.3C12.7,142.7,15.2,122.9,57,100.2z"/>
<path class="st1" d="M236.3,233.8c0,4.7-1.1,10.1-2.2,11.5c51.5,3.6,102.6,7.9,182.2,1.4s168.5-32.4,176.1-38.2l0.4-6.5
	c-27,12.6-120.6,33.1-186.5,35.7C370.7,239.2,275.2,240.3,236.3,233.8z"/>
</svg>
